G04 #@! TF.GenerationSoftware,KiCad,Pcbnew,9.0.1*
G04 #@! TF.CreationDate,2025-08-07T13:13:29-07:00*
G04 #@! TF.ProjectId,video circuit,76696465-6f20-4636-9972-637569742e6b,rev?*
G04 #@! TF.SameCoordinates,Original*
G04 #@! TF.FileFunction,Soldermask,Bot*
G04 #@! TF.FilePolarity,Negative*
%FSLAX46Y46*%
G04 Gerber Fmt 4.6, Leading zero omitted, Abs format (unit mm)*
G04 Created by KiCad (PCBNEW 9.0.1) date 2025-08-07 13:13:29*
%MOMM*%
%LPD*%
G01*
G04 APERTURE LIST*
G04 Aperture macros list*
%AMRoundRect*
0 Rectangle with rounded corners*
0 $1 Rounding radius*
0 $2 $3 $4 $5 $6 $7 $8 $9 X,Y pos of 4 corners*
0 Add a 4 corners polygon primitive as box body*
4,1,4,$2,$3,$4,$5,$6,$7,$8,$9,$2,$3,0*
0 Add four circle primitives for the rounded corners*
1,1,$1+$1,$2,$3*
1,1,$1+$1,$4,$5*
1,1,$1+$1,$6,$7*
1,1,$1+$1,$8,$9*
0 Add four rect primitives between the rounded corners*
20,1,$1+$1,$2,$3,$4,$5,0*
20,1,$1+$1,$4,$5,$6,$7,0*
20,1,$1+$1,$6,$7,$8,$9,0*
20,1,$1+$1,$8,$9,$2,$3,0*%
G04 Aperture macros list end*
%ADD10RoundRect,0.250000X-0.950000X-0.550000X0.950000X-0.550000X0.950000X0.550000X-0.950000X0.550000X0*%
%ADD11O,2.400000X1.600000*%
%ADD12C,1.400000*%
%ADD13O,1.400000X1.400000*%
%ADD14R,1.700000X1.700000*%
%ADD15C,1.700000*%
%ADD16R,1.600000X1.600000*%
%ADD17C,1.600000*%
%ADD18R,1.524000X1.524000*%
%ADD19R,1.524000X0.635000*%
G04 APERTURE END LIST*
D10*
X19000000Y-45460000D03*
D11*
X19000000Y-48000000D03*
X19000000Y-50540000D03*
X19000000Y-53080000D03*
X19000000Y-55620000D03*
X19000000Y-58160000D03*
X19000000Y-60700000D03*
X19000000Y-63240000D03*
X26620000Y-63240000D03*
X26620000Y-60700000D03*
X26620000Y-58160000D03*
X26620000Y-55620000D03*
X26620000Y-53080000D03*
X26620000Y-50540000D03*
X26620000Y-48000000D03*
X26620000Y-45460000D03*
D10*
X96535000Y-43000000D03*
D11*
X96535000Y-45540000D03*
X96535000Y-48080000D03*
X96535000Y-50620000D03*
X96535000Y-53160000D03*
X96535000Y-55700000D03*
X96535000Y-58240000D03*
X104155000Y-58240000D03*
X104155000Y-55700000D03*
X104155000Y-53160000D03*
X104155000Y-50620000D03*
X104155000Y-48080000D03*
X104155000Y-45540000D03*
X104155000Y-43000000D03*
D12*
X180460000Y-30000000D03*
D13*
X185540000Y-30000000D03*
D10*
X44310000Y-124000000D03*
D11*
X44310000Y-126540000D03*
X44310000Y-129080000D03*
X44310000Y-131620000D03*
X44310000Y-134160000D03*
X44310000Y-136700000D03*
X44310000Y-139240000D03*
X44310000Y-141780000D03*
X51930000Y-141780000D03*
X51930000Y-139240000D03*
X51930000Y-136700000D03*
X51930000Y-134160000D03*
X51930000Y-131620000D03*
X51930000Y-129080000D03*
X51930000Y-126540000D03*
X51930000Y-124000000D03*
D10*
X70000000Y-95000000D03*
D11*
X70000000Y-97540000D03*
X70000000Y-100080000D03*
X70000000Y-102620000D03*
X70000000Y-105160000D03*
X70000000Y-107700000D03*
X70000000Y-110240000D03*
X77620000Y-110240000D03*
X77620000Y-107700000D03*
X77620000Y-105160000D03*
X77620000Y-102620000D03*
X77620000Y-100080000D03*
X77620000Y-97540000D03*
X77620000Y-95000000D03*
D14*
X148960000Y-112160000D03*
D15*
X148960000Y-114700000D03*
X148960000Y-117240000D03*
D16*
X51930000Y-114240000D03*
D17*
X51930000Y-99000000D03*
X44310000Y-99000000D03*
X44310000Y-114240000D03*
D12*
X146420000Y-89200000D03*
D13*
X151500000Y-89200000D03*
D10*
X19000000Y-71420000D03*
D11*
X19000000Y-73960000D03*
X19000000Y-76500000D03*
X19000000Y-79040000D03*
X19000000Y-81580000D03*
X19000000Y-84120000D03*
X19000000Y-86660000D03*
X19000000Y-89200000D03*
X26620000Y-89200000D03*
X26620000Y-86660000D03*
X26620000Y-84120000D03*
X26620000Y-81580000D03*
X26620000Y-79040000D03*
X26620000Y-76500000D03*
X26620000Y-73960000D03*
X26620000Y-71420000D03*
D10*
X70000000Y-69000000D03*
D11*
X70000000Y-71540000D03*
X70000000Y-74080000D03*
X70000000Y-76620000D03*
X70000000Y-79160000D03*
X70000000Y-81700000D03*
X70000000Y-84240000D03*
X70000000Y-86780000D03*
X77620000Y-86780000D03*
X77620000Y-84240000D03*
X77620000Y-81700000D03*
X77620000Y-79160000D03*
X77620000Y-76620000D03*
X77620000Y-74080000D03*
X77620000Y-71540000D03*
X77620000Y-69000000D03*
D10*
X69880000Y-42960000D03*
D11*
X69880000Y-45500000D03*
X69880000Y-48040000D03*
X69880000Y-50580000D03*
X69880000Y-53120000D03*
X69880000Y-55660000D03*
X69880000Y-58200000D03*
X69880000Y-60740000D03*
X77500000Y-60740000D03*
X77500000Y-58200000D03*
X77500000Y-55660000D03*
X77500000Y-53120000D03*
X77500000Y-50580000D03*
X77500000Y-48040000D03*
X77500000Y-45500000D03*
X77500000Y-42960000D03*
D10*
X126415000Y-57500000D03*
D11*
X126415000Y-60040000D03*
X126415000Y-62580000D03*
X126415000Y-65120000D03*
X126415000Y-67660000D03*
X126415000Y-70200000D03*
X126415000Y-72740000D03*
X126415000Y-75280000D03*
X134035000Y-75280000D03*
X134035000Y-72740000D03*
X134035000Y-70200000D03*
X134035000Y-67660000D03*
X134035000Y-65120000D03*
X134035000Y-62580000D03*
X134035000Y-60040000D03*
X134035000Y-57500000D03*
D10*
X126035000Y-83460000D03*
D11*
X126035000Y-86000000D03*
X126035000Y-88540000D03*
X126035000Y-91080000D03*
X126035000Y-93620000D03*
X126035000Y-96160000D03*
X126035000Y-98700000D03*
X126035000Y-101240000D03*
X133655000Y-101240000D03*
X133655000Y-98700000D03*
X133655000Y-96160000D03*
X133655000Y-93620000D03*
X133655000Y-91080000D03*
X133655000Y-88540000D03*
X133655000Y-86000000D03*
X133655000Y-83460000D03*
D10*
X44500000Y-45610000D03*
D11*
X44500000Y-48150000D03*
X44500000Y-50690000D03*
X44500000Y-53230000D03*
X44500000Y-55770000D03*
X44500000Y-58310000D03*
X44500000Y-60850000D03*
X44500000Y-63390000D03*
X52120000Y-63390000D03*
X52120000Y-60850000D03*
X52120000Y-58310000D03*
X52120000Y-55770000D03*
X52120000Y-53230000D03*
X52120000Y-50690000D03*
X52120000Y-48150000D03*
X52120000Y-45610000D03*
D12*
X146420000Y-92350000D03*
D13*
X151500000Y-92350000D03*
D10*
X18880000Y-147040000D03*
D11*
X18880000Y-149580000D03*
X18880000Y-152120000D03*
X18880000Y-154660000D03*
X18880000Y-157200000D03*
X18880000Y-159740000D03*
X18880000Y-162280000D03*
X18880000Y-164820000D03*
X26500000Y-164820000D03*
X26500000Y-162280000D03*
X26500000Y-159740000D03*
X26500000Y-157200000D03*
X26500000Y-154660000D03*
X26500000Y-152120000D03*
X26500000Y-149580000D03*
X26500000Y-147040000D03*
D10*
X19000000Y-121000000D03*
D11*
X19000000Y-123540000D03*
X19000000Y-126080000D03*
X19000000Y-128620000D03*
X19000000Y-131160000D03*
X19000000Y-133700000D03*
X19000000Y-136240000D03*
X19000000Y-138780000D03*
X26620000Y-138780000D03*
X26620000Y-136240000D03*
X26620000Y-133700000D03*
X26620000Y-131160000D03*
X26620000Y-128620000D03*
X26620000Y-126080000D03*
X26620000Y-123540000D03*
X26620000Y-121000000D03*
D12*
X180460000Y-58000000D03*
D13*
X185540000Y-58000000D03*
D10*
X96415000Y-116500000D03*
D11*
X96415000Y-119040000D03*
X96415000Y-121580000D03*
X96415000Y-124120000D03*
X96415000Y-126660000D03*
X96415000Y-129200000D03*
X96415000Y-131740000D03*
X96415000Y-134280000D03*
X104035000Y-134280000D03*
X104035000Y-131740000D03*
X104035000Y-129200000D03*
X104035000Y-126660000D03*
X104035000Y-124120000D03*
X104035000Y-121580000D03*
X104035000Y-119040000D03*
X104035000Y-116500000D03*
D10*
X44310000Y-71420000D03*
D11*
X44310000Y-73960000D03*
X44310000Y-76500000D03*
X44310000Y-79040000D03*
X44310000Y-81580000D03*
X44310000Y-84120000D03*
X44310000Y-86660000D03*
X44310000Y-89200000D03*
X51930000Y-89200000D03*
X51930000Y-86660000D03*
X51930000Y-84120000D03*
X51930000Y-81580000D03*
X51930000Y-79040000D03*
X51930000Y-76500000D03*
X51930000Y-73960000D03*
X51930000Y-71420000D03*
D10*
X70000000Y-19500000D03*
D11*
X70000000Y-22040000D03*
X70000000Y-24580000D03*
X70000000Y-27120000D03*
X70000000Y-29660000D03*
X70000000Y-32200000D03*
X70000000Y-34740000D03*
X77620000Y-34740000D03*
X77620000Y-32200000D03*
X77620000Y-29660000D03*
X77620000Y-27120000D03*
X77620000Y-24580000D03*
X77620000Y-22040000D03*
X77620000Y-19500000D03*
D10*
X96535000Y-19500000D03*
D11*
X96535000Y-22040000D03*
X96535000Y-24580000D03*
X96535000Y-27120000D03*
X96535000Y-29660000D03*
X96535000Y-32200000D03*
X96535000Y-34740000D03*
X104155000Y-34740000D03*
X104155000Y-32200000D03*
X104155000Y-29660000D03*
X104155000Y-27120000D03*
X104155000Y-24580000D03*
X104155000Y-22040000D03*
X104155000Y-19500000D03*
D12*
X146420000Y-98650000D03*
D13*
X151500000Y-98650000D03*
D12*
X146420000Y-95500000D03*
D13*
X151500000Y-95500000D03*
D18*
X121535000Y-19000000D03*
D19*
X121535000Y-21794000D03*
X121535000Y-24588000D03*
X121535000Y-27382000D03*
X121535000Y-30176000D03*
X121535000Y-32970000D03*
X121535000Y-35764000D03*
X121535000Y-38558000D03*
X121535000Y-41352000D03*
X121535000Y-44146000D03*
X121535000Y-46940000D03*
X121535000Y-49734000D03*
X139035600Y-49734000D03*
X139035600Y-46940000D03*
X139035600Y-44146000D03*
X139035600Y-41352000D03*
X139035600Y-38558000D03*
X139035600Y-35764000D03*
X139035600Y-32970000D03*
X139035600Y-30176000D03*
X139035600Y-27382000D03*
X139035600Y-24588000D03*
X139035600Y-21794000D03*
X139035600Y-19000000D03*
D10*
X96535000Y-142500000D03*
D11*
X96535000Y-145040000D03*
X96535000Y-147580000D03*
X96535000Y-150120000D03*
X96535000Y-152660000D03*
X96535000Y-155200000D03*
X96535000Y-157740000D03*
X104155000Y-157740000D03*
X104155000Y-155200000D03*
X104155000Y-152660000D03*
X104155000Y-150120000D03*
X104155000Y-147580000D03*
X104155000Y-145040000D03*
X104155000Y-142500000D03*
D10*
X44190000Y-150000000D03*
D11*
X44190000Y-152540000D03*
X44190000Y-155080000D03*
X44190000Y-157620000D03*
X44190000Y-160160000D03*
X44190000Y-162700000D03*
X44190000Y-165240000D03*
X44190000Y-167780000D03*
X51810000Y-167780000D03*
X51810000Y-165240000D03*
X51810000Y-162700000D03*
X51810000Y-160160000D03*
X51810000Y-157620000D03*
X51810000Y-155080000D03*
X51810000Y-152540000D03*
X51810000Y-150000000D03*
D10*
X96535000Y-90000000D03*
D11*
X96535000Y-92540000D03*
X96535000Y-95080000D03*
X96535000Y-97620000D03*
X96535000Y-100160000D03*
X96535000Y-102700000D03*
X96535000Y-105240000D03*
X96535000Y-107780000D03*
X104155000Y-107780000D03*
X104155000Y-105240000D03*
X104155000Y-102700000D03*
X104155000Y-100160000D03*
X104155000Y-97620000D03*
X104155000Y-95080000D03*
X104155000Y-92540000D03*
X104155000Y-90000000D03*
D10*
X18880000Y-19500000D03*
D11*
X18880000Y-22040000D03*
X18880000Y-24580000D03*
X18880000Y-27120000D03*
X18880000Y-29660000D03*
X18880000Y-32200000D03*
X18880000Y-34740000D03*
X18880000Y-37280000D03*
X26500000Y-37280000D03*
X26500000Y-34740000D03*
X26500000Y-32200000D03*
X26500000Y-29660000D03*
X26500000Y-27120000D03*
X26500000Y-24580000D03*
X26500000Y-22040000D03*
X26500000Y-19500000D03*
D14*
X174500000Y-93080000D03*
D15*
X174500000Y-95620000D03*
X174500000Y-98160000D03*
X174500000Y-100700000D03*
X174500000Y-103240000D03*
X174500000Y-105780000D03*
X174500000Y-108320000D03*
X174500000Y-110860000D03*
X174500000Y-113400000D03*
X174500000Y-115940000D03*
X174500000Y-118480000D03*
X174500000Y-121020000D03*
X174500000Y-123560000D03*
X174500000Y-126100000D03*
X174500000Y-128640000D03*
X174500000Y-131180000D03*
X174500000Y-133720000D03*
X174500000Y-136260000D03*
X174500000Y-138800000D03*
X174500000Y-141340000D03*
X174500000Y-143880000D03*
X174500000Y-146420000D03*
X174500000Y-148960000D03*
X174500000Y-151500000D03*
X174500000Y-154040000D03*
X174500000Y-156580000D03*
X174500000Y-159120000D03*
X174500000Y-161660000D03*
X174500000Y-164200000D03*
D12*
X146420000Y-101800000D03*
D13*
X151500000Y-101800000D03*
D10*
X159000000Y-20100000D03*
D11*
X159000000Y-22640000D03*
X159000000Y-25180000D03*
X159000000Y-27720000D03*
X159000000Y-30260000D03*
X159000000Y-32800000D03*
X159000000Y-35340000D03*
X159000000Y-37880000D03*
X159000000Y-40420000D03*
X159000000Y-42960000D03*
X159000000Y-45500000D03*
X159000000Y-48040000D03*
X159000000Y-50580000D03*
X159000000Y-53120000D03*
X159000000Y-55660000D03*
X159000000Y-58200000D03*
X159000000Y-60740000D03*
X159000000Y-63280000D03*
X159000000Y-65820000D03*
X159000000Y-68360000D03*
X159000000Y-70900000D03*
X159000000Y-73440000D03*
X159000000Y-75980000D03*
X159000000Y-78520000D03*
X174240000Y-78520000D03*
X174240000Y-75980000D03*
X174240000Y-73440000D03*
X174240000Y-70900000D03*
X174240000Y-68360000D03*
X174240000Y-65820000D03*
X174240000Y-63280000D03*
X174240000Y-60740000D03*
X174240000Y-58200000D03*
X174240000Y-55660000D03*
X174240000Y-53120000D03*
X174240000Y-50580000D03*
X174240000Y-48040000D03*
X174240000Y-45500000D03*
X174240000Y-42960000D03*
X174240000Y-40420000D03*
X174240000Y-37880000D03*
X174240000Y-35340000D03*
X174240000Y-32800000D03*
X174240000Y-30260000D03*
X174240000Y-27720000D03*
X174240000Y-25180000D03*
X174240000Y-22640000D03*
X174240000Y-20100000D03*
D10*
X18880000Y-97460000D03*
D11*
X18880000Y-100000000D03*
X18880000Y-102540000D03*
X18880000Y-105080000D03*
X18880000Y-107620000D03*
X18880000Y-110160000D03*
X18880000Y-112700000D03*
X26500000Y-112700000D03*
X26500000Y-110160000D03*
X26500000Y-107620000D03*
X26500000Y-105080000D03*
X26500000Y-102540000D03*
X26500000Y-100000000D03*
X26500000Y-97460000D03*
D10*
X44500000Y-19610000D03*
D11*
X44500000Y-22150000D03*
X44500000Y-24690000D03*
X44500000Y-27230000D03*
X44500000Y-29770000D03*
X44500000Y-32310000D03*
X44500000Y-34850000D03*
X44500000Y-37390000D03*
X52120000Y-37390000D03*
X52120000Y-34850000D03*
X52120000Y-32310000D03*
X52120000Y-29770000D03*
X52120000Y-27230000D03*
X52120000Y-24690000D03*
X52120000Y-22150000D03*
X52120000Y-19610000D03*
D10*
X96535000Y-66500000D03*
D11*
X96535000Y-69040000D03*
X96535000Y-71580000D03*
X96535000Y-74120000D03*
X96535000Y-76660000D03*
X96535000Y-79200000D03*
X96535000Y-81740000D03*
X104155000Y-81740000D03*
X104155000Y-79200000D03*
X104155000Y-76660000D03*
X104155000Y-74120000D03*
X104155000Y-71580000D03*
X104155000Y-69040000D03*
X104155000Y-66500000D03*
M02*
