M48
; DRILL file {KiCad 9.0.1} date 2025-08-07T13:10:16-0700
; FORMAT={-:-/ absolute / metric / decimal}
; #@! TF.CreationDate,2025-08-07T13:10:16-07:00
; #@! TF.GenerationSoftware,Kicad,Pcbnew,9.0.1
; #@! TF.FileFunction,Plated,1,2,PTH
FMAT,2
METRIC
; #@! TA.AperFunction,Plated,PTH,ViaDrill
T1C0.300
; #@! TA.AperFunction,Plated,PTH,ComponentDrill
T2C0.700
; #@! TA.AperFunction,Plated,PTH,ComponentDrill
T3C0.800
; #@! TA.AperFunction,Plated,PTH,ComponentDrill
T4C0.813
; #@! TA.AperFunction,Plated,PTH,ComponentDrill
T5C1.000
%
G90
G05
T1
X16.063Y-98.24
X21.426Y-59.312
X23.007Y-86.262
X29.64Y-134.174
X29.723Y-131.096
X34.613Y-71.191
X37.575Y-109.356
X42.658Y-55.461
X43.498Y-40.341
X46.248Y-32.361
X49.134Y-77.279
X53.623Y-26.342
X54.554Y-29.367
X55.345Y-56.317
X60.556Y-72.902
X67.191Y-76.865
X73.248Y-29.869
X73.31Y-53.323
X75.923Y-54.193
X75.998Y-38.349
X79.67Y-26.625
X82.0Y-95.246
X84.962Y-104.046
X84.962Y-131.18
X87.133Y-98.24
X87.133Y-116.207
X87.923Y-77.959
X93.449Y-102.967
X93.847Y-74.366
X99.77Y-74.284
X105.189Y-39.149
X106.088Y-41.691
X106.265Y-36.809
X106.265Y-98.239
X106.682Y-56.807
X117.985Y-86.184
X119.14Y-65.301
X126.425Y-149.147
X129.386Y-71.29
X129.386Y-77.279
X131.036Y-131.18
X131.057Y-52.176
X131.213Y-50.198
X131.346Y-71.066
X131.906Y-125.191
X133.954Y-48.937
X135.311Y-152.141
X136.214Y-62.306
X140.778Y-59.312
X141.451Y-56.312
X142.136Y-62.306
X143.552Y-97.597
X143.86Y-57.149
X144.196Y-68.295
X144.196Y-158.13
X147.579Y-82.469
X154.841Y-95.246
X155.36Y-107.085
X156.377Y-119.202
X158.969Y-122.189
X170.81Y-55.792
X170.851Y-26.372
X171.138Y-74.284
X171.143Y-30.08
X171.227Y-35.071
X175.322Y-91.492
X177.219Y-128.185
T2
X146.42Y-89.2
X146.42Y-92.35
X146.42Y-95.5
X146.42Y-98.65
X146.42Y-101.8
X151.5Y-89.2
X151.5Y-92.35
X151.5Y-95.5
X151.5Y-98.65
X151.5Y-101.8
X180.46Y-30.0
X180.46Y-58.0
X185.54Y-30.0
X185.54Y-58.0
T3
X18.88Y-19.5
X18.88Y-22.04
X18.88Y-24.58
X18.88Y-27.12
X18.88Y-29.66
X18.88Y-32.2
X18.88Y-34.74
X18.88Y-37.28
X18.88Y-97.46
X18.88Y-100.0
X18.88Y-102.54
X18.88Y-105.08
X18.88Y-107.62
X18.88Y-110.16
X18.88Y-112.7
X18.88Y-147.04
X18.88Y-149.58
X18.88Y-152.12
X18.88Y-154.66
X18.88Y-157.2
X18.88Y-159.74
X18.88Y-162.28
X18.88Y-164.82
X19.0Y-45.46
X19.0Y-48.0
X19.0Y-50.54
X19.0Y-53.08
X19.0Y-55.62
X19.0Y-58.16
X19.0Y-60.7
X19.0Y-63.24
X19.0Y-71.42
X19.0Y-73.96
X19.0Y-76.5
X19.0Y-79.04
X19.0Y-81.58
X19.0Y-84.12
X19.0Y-86.66
X19.0Y-89.2
X19.0Y-121.0
X19.0Y-123.54
X19.0Y-126.08
X19.0Y-128.62
X19.0Y-131.16
X19.0Y-133.7
X19.0Y-136.24
X19.0Y-138.78
X26.5Y-19.5
X26.5Y-22.04
X26.5Y-24.58
X26.5Y-27.12
X26.5Y-29.66
X26.5Y-32.2
X26.5Y-34.74
X26.5Y-37.28
X26.5Y-97.46
X26.5Y-100.0
X26.5Y-102.54
X26.5Y-105.08
X26.5Y-107.62
X26.5Y-110.16
X26.5Y-112.7
X26.5Y-147.04
X26.5Y-149.58
X26.5Y-152.12
X26.5Y-154.66
X26.5Y-157.2
X26.5Y-159.74
X26.5Y-162.28
X26.5Y-164.82
X26.62Y-45.46
X26.62Y-48.0
X26.62Y-50.54
X26.62Y-53.08
X26.62Y-55.62
X26.62Y-58.16
X26.62Y-60.7
X26.62Y-63.24
X26.62Y-71.42
X26.62Y-73.96
X26.62Y-76.5
X26.62Y-79.04
X26.62Y-81.58
X26.62Y-84.12
X26.62Y-86.66
X26.62Y-89.2
X26.62Y-121.0
X26.62Y-123.54
X26.62Y-126.08
X26.62Y-128.62
X26.62Y-131.16
X26.62Y-133.7
X26.62Y-136.24
X26.62Y-138.78
X44.19Y-150.0
X44.19Y-152.54
X44.19Y-155.08
X44.19Y-157.62
X44.19Y-160.16
X44.19Y-162.7
X44.19Y-165.24
X44.19Y-167.78
X44.31Y-71.42
X44.31Y-73.96
X44.31Y-76.5
X44.31Y-79.04
X44.31Y-81.58
X44.31Y-84.12
X44.31Y-86.66
X44.31Y-89.2
X44.31Y-99.0
X44.31Y-114.24
X44.31Y-124.0
X44.31Y-126.54
X44.31Y-129.08
X44.31Y-131.62
X44.31Y-134.16
X44.31Y-136.7
X44.31Y-139.24
X44.31Y-141.78
X44.5Y-19.61
X44.5Y-22.15
X44.5Y-24.69
X44.5Y-27.23
X44.5Y-29.77
X44.5Y-32.31
X44.5Y-34.85
X44.5Y-37.39
X44.5Y-45.61
X44.5Y-48.15
X44.5Y-50.69
X44.5Y-53.23
X44.5Y-55.77
X44.5Y-58.31
X44.5Y-60.85
X44.5Y-63.39
X51.81Y-150.0
X51.81Y-152.54
X51.81Y-155.08
X51.81Y-157.62
X51.81Y-160.16
X51.81Y-162.7
X51.81Y-165.24
X51.81Y-167.78
X51.93Y-71.42
X51.93Y-73.96
X51.93Y-76.5
X51.93Y-79.04
X51.93Y-81.58
X51.93Y-84.12
X51.93Y-86.66
X51.93Y-89.2
X51.93Y-99.0
X51.93Y-114.24
X51.93Y-124.0
X51.93Y-126.54
X51.93Y-129.08
X51.93Y-131.62
X51.93Y-134.16
X51.93Y-136.7
X51.93Y-139.24
X51.93Y-141.78
X52.12Y-19.61
X52.12Y-22.15
X52.12Y-24.69
X52.12Y-27.23
X52.12Y-29.77
X52.12Y-32.31
X52.12Y-34.85
X52.12Y-37.39
X52.12Y-45.61
X52.12Y-48.15
X52.12Y-50.69
X52.12Y-53.23
X52.12Y-55.77
X52.12Y-58.31
X52.12Y-60.85
X52.12Y-63.39
X69.88Y-42.96
X69.88Y-45.5
X69.88Y-48.04
X69.88Y-50.58
X69.88Y-53.12
X69.88Y-55.66
X69.88Y-58.2
X69.88Y-60.74
X70.0Y-19.5
X70.0Y-22.04
X70.0Y-24.58
X70.0Y-27.12
X70.0Y-29.66
X70.0Y-32.2
X70.0Y-34.74
X70.0Y-69.0
X70.0Y-71.54
X70.0Y-74.08
X70.0Y-76.62
X70.0Y-79.16
X70.0Y-81.7
X70.0Y-84.24
X70.0Y-86.78
X70.0Y-95.0
X70.0Y-97.54
X70.0Y-100.08
X70.0Y-102.62
X70.0Y-105.16
X70.0Y-107.7
X70.0Y-110.24
X77.5Y-42.96
X77.5Y-45.5
X77.5Y-48.04
X77.5Y-50.58
X77.5Y-53.12
X77.5Y-55.66
X77.5Y-58.2
X77.5Y-60.74
X77.62Y-19.5
X77.62Y-22.04
X77.62Y-24.58
X77.62Y-27.12
X77.62Y-29.66
X77.62Y-32.2
X77.62Y-34.74
X77.62Y-69.0
X77.62Y-71.54
X77.62Y-74.08
X77.62Y-76.62
X77.62Y-79.16
X77.62Y-81.7
X77.62Y-84.24
X77.62Y-86.78
X77.62Y-95.0
X77.62Y-97.54
X77.62Y-100.08
X77.62Y-102.62
X77.62Y-105.16
X77.62Y-107.7
X77.62Y-110.24
X96.415Y-116.5
X96.415Y-119.04
X96.415Y-121.58
X96.415Y-124.12
X96.415Y-126.66
X96.415Y-129.2
X96.415Y-131.74
X96.415Y-134.28
X96.535Y-19.5
X96.535Y-22.04
X96.535Y-24.58
X96.535Y-27.12
X96.535Y-29.66
X96.535Y-32.2
X96.535Y-34.74
X96.535Y-43.0
X96.535Y-45.54
X96.535Y-48.08
X96.535Y-50.62
X96.535Y-53.16
X96.535Y-55.7
X96.535Y-58.24
X96.535Y-66.5
X96.535Y-69.04
X96.535Y-71.58
X96.535Y-74.12
X96.535Y-76.66
X96.535Y-79.2
X96.535Y-81.74
X96.535Y-90.0
X96.535Y-92.54
X96.535Y-95.08
X96.535Y-97.62
X96.535Y-100.16
X96.535Y-102.7
X96.535Y-105.24
X96.535Y-107.78
X96.535Y-142.5
X96.535Y-145.04
X96.535Y-147.58
X96.535Y-150.12
X96.535Y-152.66
X96.535Y-155.2
X96.535Y-157.74
X104.035Y-116.5
X104.035Y-119.04
X104.035Y-121.58
X104.035Y-124.12
X104.035Y-126.66
X104.035Y-129.2
X104.035Y-131.74
X104.035Y-134.28
X104.155Y-19.5
X104.155Y-22.04
X104.155Y-24.58
X104.155Y-27.12
X104.155Y-29.66
X104.155Y-32.2
X104.155Y-34.74
X104.155Y-43.0
X104.155Y-45.54
X104.155Y-48.08
X104.155Y-50.62
X104.155Y-53.16
X104.155Y-55.7
X104.155Y-58.24
X104.155Y-66.5
X104.155Y-69.04
X104.155Y-71.58
X104.155Y-74.12
X104.155Y-76.66
X104.155Y-79.2
X104.155Y-81.74
X104.155Y-90.0
X104.155Y-92.54
X104.155Y-95.08
X104.155Y-97.62
X104.155Y-100.16
X104.155Y-102.7
X104.155Y-105.24
X104.155Y-107.78
X104.155Y-142.5
X104.155Y-145.04
X104.155Y-147.58
X104.155Y-150.12
X104.155Y-152.66
X104.155Y-155.2
X104.155Y-157.74
X126.035Y-83.46
X126.035Y-86.0
X126.035Y-88.54
X126.035Y-91.08
X126.035Y-93.62
X126.035Y-96.16
X126.035Y-98.7
X126.035Y-101.24
X126.415Y-57.5
X126.415Y-60.04
X126.415Y-62.58
X126.415Y-65.12
X126.415Y-67.66
X126.415Y-70.2
X126.415Y-72.74
X126.415Y-75.28
X133.655Y-83.46
X133.655Y-86.0
X133.655Y-88.54
X133.655Y-91.08
X133.655Y-93.62
X133.655Y-96.16
X133.655Y-98.7
X133.655Y-101.24
X134.035Y-57.5
X134.035Y-60.04
X134.035Y-62.58
X134.035Y-65.12
X134.035Y-67.66
X134.035Y-70.2
X134.035Y-72.74
X134.035Y-75.28
X159.0Y-20.1
X159.0Y-22.64
X159.0Y-25.18
X159.0Y-27.72
X159.0Y-30.26
X159.0Y-32.8
X159.0Y-35.34
X159.0Y-37.88
X159.0Y-40.42
X159.0Y-42.96
X159.0Y-45.5
X159.0Y-48.04
X159.0Y-50.58
X159.0Y-53.12
X159.0Y-55.66
X159.0Y-58.2
X159.0Y-60.74
X159.0Y-63.28
X159.0Y-65.82
X159.0Y-68.36
X159.0Y-70.9
X159.0Y-73.44
X159.0Y-75.98
X159.0Y-78.52
X174.24Y-20.1
X174.24Y-22.64
X174.24Y-25.18
X174.24Y-27.72
X174.24Y-30.26
X174.24Y-32.8
X174.24Y-35.34
X174.24Y-37.88
X174.24Y-40.42
X174.24Y-42.96
X174.24Y-45.5
X174.24Y-48.04
X174.24Y-50.58
X174.24Y-53.12
X174.24Y-55.66
X174.24Y-58.2
X174.24Y-60.74
X174.24Y-63.28
X174.24Y-65.82
X174.24Y-68.36
X174.24Y-70.9
X174.24Y-73.44
X174.24Y-75.98
X174.24Y-78.52
T4
X121.535Y-19.0
X121.535Y-21.794
X121.535Y-24.588
X121.535Y-27.382
X121.535Y-30.176
X121.535Y-32.97
X121.535Y-35.764
X121.535Y-38.558
X121.535Y-41.352
X121.535Y-44.146
X121.535Y-46.94
X121.535Y-49.734
X139.036Y-19.0
X139.036Y-21.794
X139.036Y-24.588
X139.036Y-27.382
X139.036Y-30.176
X139.036Y-32.97
X139.036Y-35.764
X139.036Y-38.558
X139.036Y-41.352
X139.036Y-44.146
X139.036Y-46.94
X139.036Y-49.734
T5
X148.96Y-112.16
X148.96Y-114.7
X148.96Y-117.24
X174.5Y-93.08
X174.5Y-95.62
X174.5Y-98.16
X174.5Y-100.7
X174.5Y-103.24
X174.5Y-105.78
X174.5Y-108.32
X174.5Y-110.86
X174.5Y-113.4
X174.5Y-115.94
X174.5Y-118.48
X174.5Y-121.02
X174.5Y-123.56
X174.5Y-126.1
X174.5Y-128.64
X174.5Y-131.18
X174.5Y-133.72
X174.5Y-136.26
X174.5Y-138.8
X174.5Y-141.34
X174.5Y-143.88
X174.5Y-146.42
X174.5Y-148.96
X174.5Y-151.5
X174.5Y-154.04
X174.5Y-156.58
X174.5Y-159.12
X174.5Y-161.66
X174.5Y-164.2
M30
