G04 #@! TF.GenerationSoftware,KiCad,Pcbnew,9.0.1*
G04 #@! TF.CreationDate,2025-08-07T13:13:29-07:00*
G04 #@! TF.ProjectId,video circuit,76696465-6f20-4636-9972-637569742e6b,rev?*
G04 #@! TF.SameCoordinates,Original*
G04 #@! TF.FileFunction,Copper,L1,Top*
G04 #@! TF.FilePolarity,Positive*
%FSLAX46Y46*%
G04 Gerber Fmt 4.6, Leading zero omitted, Abs format (unit mm)*
G04 Created by KiCad (PCBNEW 9.0.1) date 2025-08-07 13:13:29*
%MOMM*%
%LPD*%
G01*
G04 APERTURE LIST*
G04 Aperture macros list*
%AMRoundRect*
0 Rectangle with rounded corners*
0 $1 Rounding radius*
0 $2 $3 $4 $5 $6 $7 $8 $9 X,Y pos of 4 corners*
0 Add a 4 corners polygon primitive as box body*
4,1,4,$2,$3,$4,$5,$6,$7,$8,$9,$2,$3,0*
0 Add four circle primitives for the rounded corners*
1,1,$1+$1,$2,$3*
1,1,$1+$1,$4,$5*
1,1,$1+$1,$6,$7*
1,1,$1+$1,$8,$9*
0 Add four rect primitives between the rounded corners*
20,1,$1+$1,$2,$3,$4,$5,0*
20,1,$1+$1,$4,$5,$6,$7,0*
20,1,$1+$1,$6,$7,$8,$9,0*
20,1,$1+$1,$8,$9,$2,$3,0*%
G04 Aperture macros list end*
%ADD10C,0.300000*%
G04 #@! TA.AperFunction,NonConductor*
%ADD11C,0.300000*%
G04 #@! TD*
G04 #@! TA.AperFunction,ComponentPad*
%ADD12RoundRect,0.250000X-0.950000X-0.550000X0.950000X-0.550000X0.950000X0.550000X-0.950000X0.550000X0*%
G04 #@! TD*
G04 #@! TA.AperFunction,ComponentPad*
%ADD13O,2.400000X1.600000*%
G04 #@! TD*
G04 #@! TA.AperFunction,ComponentPad*
%ADD14C,1.400000*%
G04 #@! TD*
G04 #@! TA.AperFunction,ComponentPad*
%ADD15O,1.400000X1.400000*%
G04 #@! TD*
G04 #@! TA.AperFunction,ComponentPad*
%ADD16R,1.700000X1.700000*%
G04 #@! TD*
G04 #@! TA.AperFunction,ComponentPad*
%ADD17C,1.700000*%
G04 #@! TD*
G04 #@! TA.AperFunction,ComponentPad*
%ADD18R,1.600000X1.600000*%
G04 #@! TD*
G04 #@! TA.AperFunction,ComponentPad*
%ADD19C,1.600000*%
G04 #@! TD*
G04 #@! TA.AperFunction,ComponentPad*
%ADD20R,1.524000X1.524000*%
G04 #@! TD*
G04 #@! TA.AperFunction,ComponentPad*
%ADD21R,1.524000X0.635000*%
G04 #@! TD*
G04 #@! TA.AperFunction,ViaPad*
%ADD22C,0.600000*%
G04 #@! TD*
G04 #@! TA.AperFunction,Conductor*
%ADD23C,0.200000*%
G04 #@! TD*
G04 APERTURE END LIST*
D10*
D11*
X177054510Y-164515114D02*
X177268796Y-164586542D01*
X177268796Y-164586542D02*
X177340225Y-164657971D01*
X177340225Y-164657971D02*
X177411653Y-164800828D01*
X177411653Y-164800828D02*
X177411653Y-165015114D01*
X177411653Y-165015114D02*
X177340225Y-165157971D01*
X177340225Y-165157971D02*
X177268796Y-165229400D01*
X177268796Y-165229400D02*
X177125939Y-165300828D01*
X177125939Y-165300828D02*
X176554510Y-165300828D01*
X176554510Y-165300828D02*
X176554510Y-163800828D01*
X176554510Y-163800828D02*
X177054510Y-163800828D01*
X177054510Y-163800828D02*
X177197368Y-163872257D01*
X177197368Y-163872257D02*
X177268796Y-163943685D01*
X177268796Y-163943685D02*
X177340225Y-164086542D01*
X177340225Y-164086542D02*
X177340225Y-164229400D01*
X177340225Y-164229400D02*
X177268796Y-164372257D01*
X177268796Y-164372257D02*
X177197368Y-164443685D01*
X177197368Y-164443685D02*
X177054510Y-164515114D01*
X177054510Y-164515114D02*
X176554510Y-164515114D01*
X178268796Y-165300828D02*
X178125939Y-165229400D01*
X178125939Y-165229400D02*
X178054510Y-165157971D01*
X178054510Y-165157971D02*
X177983082Y-165015114D01*
X177983082Y-165015114D02*
X177983082Y-164586542D01*
X177983082Y-164586542D02*
X178054510Y-164443685D01*
X178054510Y-164443685D02*
X178125939Y-164372257D01*
X178125939Y-164372257D02*
X178268796Y-164300828D01*
X178268796Y-164300828D02*
X178483082Y-164300828D01*
X178483082Y-164300828D02*
X178625939Y-164372257D01*
X178625939Y-164372257D02*
X178697368Y-164443685D01*
X178697368Y-164443685D02*
X178768796Y-164586542D01*
X178768796Y-164586542D02*
X178768796Y-165015114D01*
X178768796Y-165015114D02*
X178697368Y-165157971D01*
X178697368Y-165157971D02*
X178625939Y-165229400D01*
X178625939Y-165229400D02*
X178483082Y-165300828D01*
X178483082Y-165300828D02*
X178268796Y-165300828D01*
X179197368Y-164300828D02*
X179768796Y-164300828D01*
X179411653Y-163800828D02*
X179411653Y-165086542D01*
X179411653Y-165086542D02*
X179483082Y-165229400D01*
X179483082Y-165229400D02*
X179625939Y-165300828D01*
X179625939Y-165300828D02*
X179768796Y-165300828D01*
X180054511Y-164300828D02*
X180625939Y-164300828D01*
X180268796Y-163800828D02*
X180268796Y-165086542D01*
X180268796Y-165086542D02*
X180340225Y-165229400D01*
X180340225Y-165229400D02*
X180483082Y-165300828D01*
X180483082Y-165300828D02*
X180625939Y-165300828D01*
X181340225Y-165300828D02*
X181197368Y-165229400D01*
X181197368Y-165229400D02*
X181125939Y-165157971D01*
X181125939Y-165157971D02*
X181054511Y-165015114D01*
X181054511Y-165015114D02*
X181054511Y-164586542D01*
X181054511Y-164586542D02*
X181125939Y-164443685D01*
X181125939Y-164443685D02*
X181197368Y-164372257D01*
X181197368Y-164372257D02*
X181340225Y-164300828D01*
X181340225Y-164300828D02*
X181554511Y-164300828D01*
X181554511Y-164300828D02*
X181697368Y-164372257D01*
X181697368Y-164372257D02*
X181768797Y-164443685D01*
X181768797Y-164443685D02*
X181840225Y-164586542D01*
X181840225Y-164586542D02*
X181840225Y-165015114D01*
X181840225Y-165015114D02*
X181768797Y-165157971D01*
X181768797Y-165157971D02*
X181697368Y-165229400D01*
X181697368Y-165229400D02*
X181554511Y-165300828D01*
X181554511Y-165300828D02*
X181340225Y-165300828D01*
X182483082Y-165300828D02*
X182483082Y-164300828D01*
X182483082Y-164443685D02*
X182554511Y-164372257D01*
X182554511Y-164372257D02*
X182697368Y-164300828D01*
X182697368Y-164300828D02*
X182911654Y-164300828D01*
X182911654Y-164300828D02*
X183054511Y-164372257D01*
X183054511Y-164372257D02*
X183125940Y-164515114D01*
X183125940Y-164515114D02*
X183125940Y-165300828D01*
X183125940Y-164515114D02*
X183197368Y-164372257D01*
X183197368Y-164372257D02*
X183340225Y-164300828D01*
X183340225Y-164300828D02*
X183554511Y-164300828D01*
X183554511Y-164300828D02*
X183697368Y-164372257D01*
X183697368Y-164372257D02*
X183768797Y-164515114D01*
X183768797Y-164515114D02*
X183768797Y-165300828D01*
X186054511Y-165872257D02*
X185983082Y-165800828D01*
X185983082Y-165800828D02*
X185840225Y-165586542D01*
X185840225Y-165586542D02*
X185768797Y-165443685D01*
X185768797Y-165443685D02*
X185697368Y-165229400D01*
X185697368Y-165229400D02*
X185625939Y-164872257D01*
X185625939Y-164872257D02*
X185625939Y-164586542D01*
X185625939Y-164586542D02*
X185697368Y-164229400D01*
X185697368Y-164229400D02*
X185768797Y-164015114D01*
X185768797Y-164015114D02*
X185840225Y-163872257D01*
X185840225Y-163872257D02*
X185983082Y-163657971D01*
X185983082Y-163657971D02*
X186054511Y-163586542D01*
X186554511Y-163943685D02*
X186625939Y-163872257D01*
X186625939Y-163872257D02*
X186768797Y-163800828D01*
X186768797Y-163800828D02*
X187125939Y-163800828D01*
X187125939Y-163800828D02*
X187268797Y-163872257D01*
X187268797Y-163872257D02*
X187340225Y-163943685D01*
X187340225Y-163943685D02*
X187411654Y-164086542D01*
X187411654Y-164086542D02*
X187411654Y-164229400D01*
X187411654Y-164229400D02*
X187340225Y-164443685D01*
X187340225Y-164443685D02*
X186483082Y-165300828D01*
X186483082Y-165300828D02*
X187411654Y-165300828D01*
X188125939Y-165300828D02*
X188411653Y-165300828D01*
X188411653Y-165300828D02*
X188554510Y-165229400D01*
X188554510Y-165229400D02*
X188625939Y-165157971D01*
X188625939Y-165157971D02*
X188768796Y-164943685D01*
X188768796Y-164943685D02*
X188840225Y-164657971D01*
X188840225Y-164657971D02*
X188840225Y-164086542D01*
X188840225Y-164086542D02*
X188768796Y-163943685D01*
X188768796Y-163943685D02*
X188697368Y-163872257D01*
X188697368Y-163872257D02*
X188554510Y-163800828D01*
X188554510Y-163800828D02*
X188268796Y-163800828D01*
X188268796Y-163800828D02*
X188125939Y-163872257D01*
X188125939Y-163872257D02*
X188054510Y-163943685D01*
X188054510Y-163943685D02*
X187983082Y-164086542D01*
X187983082Y-164086542D02*
X187983082Y-164443685D01*
X187983082Y-164443685D02*
X188054510Y-164586542D01*
X188054510Y-164586542D02*
X188125939Y-164657971D01*
X188125939Y-164657971D02*
X188268796Y-164729400D01*
X188268796Y-164729400D02*
X188554510Y-164729400D01*
X188554510Y-164729400D02*
X188697368Y-164657971D01*
X188697368Y-164657971D02*
X188768796Y-164586542D01*
X188768796Y-164586542D02*
X188840225Y-164443685D01*
X189340224Y-165872257D02*
X189411653Y-165800828D01*
X189411653Y-165800828D02*
X189554510Y-165586542D01*
X189554510Y-165586542D02*
X189625939Y-165443685D01*
X189625939Y-165443685D02*
X189697367Y-165229400D01*
X189697367Y-165229400D02*
X189768796Y-164872257D01*
X189768796Y-164872257D02*
X189768796Y-164586542D01*
X189768796Y-164586542D02*
X189697367Y-164229400D01*
X189697367Y-164229400D02*
X189625939Y-164015114D01*
X189625939Y-164015114D02*
X189554510Y-163872257D01*
X189554510Y-163872257D02*
X189411653Y-163657971D01*
X189411653Y-163657971D02*
X189340224Y-163586542D01*
D10*
D11*
X181340225Y-91800828D02*
X182197368Y-91800828D01*
X181768796Y-93300828D02*
X181768796Y-91800828D01*
X182911653Y-93300828D02*
X182768796Y-93229400D01*
X182768796Y-93229400D02*
X182697367Y-93157971D01*
X182697367Y-93157971D02*
X182625939Y-93015114D01*
X182625939Y-93015114D02*
X182625939Y-92586542D01*
X182625939Y-92586542D02*
X182697367Y-92443685D01*
X182697367Y-92443685D02*
X182768796Y-92372257D01*
X182768796Y-92372257D02*
X182911653Y-92300828D01*
X182911653Y-92300828D02*
X183125939Y-92300828D01*
X183125939Y-92300828D02*
X183268796Y-92372257D01*
X183268796Y-92372257D02*
X183340225Y-92443685D01*
X183340225Y-92443685D02*
X183411653Y-92586542D01*
X183411653Y-92586542D02*
X183411653Y-93015114D01*
X183411653Y-93015114D02*
X183340225Y-93157971D01*
X183340225Y-93157971D02*
X183268796Y-93229400D01*
X183268796Y-93229400D02*
X183125939Y-93300828D01*
X183125939Y-93300828D02*
X182911653Y-93300828D01*
X184054510Y-92300828D02*
X184054510Y-93800828D01*
X184054510Y-92372257D02*
X184197368Y-92300828D01*
X184197368Y-92300828D02*
X184483082Y-92300828D01*
X184483082Y-92300828D02*
X184625939Y-92372257D01*
X184625939Y-92372257D02*
X184697368Y-92443685D01*
X184697368Y-92443685D02*
X184768796Y-92586542D01*
X184768796Y-92586542D02*
X184768796Y-93015114D01*
X184768796Y-93015114D02*
X184697368Y-93157971D01*
X184697368Y-93157971D02*
X184625939Y-93229400D01*
X184625939Y-93229400D02*
X184483082Y-93300828D01*
X184483082Y-93300828D02*
X184197368Y-93300828D01*
X184197368Y-93300828D02*
X184054510Y-93229400D01*
X186983082Y-93872257D02*
X186911653Y-93800828D01*
X186911653Y-93800828D02*
X186768796Y-93586542D01*
X186768796Y-93586542D02*
X186697368Y-93443685D01*
X186697368Y-93443685D02*
X186625939Y-93229400D01*
X186625939Y-93229400D02*
X186554510Y-92872257D01*
X186554510Y-92872257D02*
X186554510Y-92586542D01*
X186554510Y-92586542D02*
X186625939Y-92229400D01*
X186625939Y-92229400D02*
X186697368Y-92015114D01*
X186697368Y-92015114D02*
X186768796Y-91872257D01*
X186768796Y-91872257D02*
X186911653Y-91657971D01*
X186911653Y-91657971D02*
X186983082Y-91586542D01*
X188340225Y-93300828D02*
X187483082Y-93300828D01*
X187911653Y-93300828D02*
X187911653Y-91800828D01*
X187911653Y-91800828D02*
X187768796Y-92015114D01*
X187768796Y-92015114D02*
X187625939Y-92157971D01*
X187625939Y-92157971D02*
X187483082Y-92229400D01*
X188840224Y-93872257D02*
X188911653Y-93800828D01*
X188911653Y-93800828D02*
X189054510Y-93586542D01*
X189054510Y-93586542D02*
X189125939Y-93443685D01*
X189125939Y-93443685D02*
X189197367Y-93229400D01*
X189197367Y-93229400D02*
X189268796Y-92872257D01*
X189268796Y-92872257D02*
X189268796Y-92586542D01*
X189268796Y-92586542D02*
X189197367Y-92229400D01*
X189197367Y-92229400D02*
X189125939Y-92015114D01*
X189125939Y-92015114D02*
X189054510Y-91872257D01*
X189054510Y-91872257D02*
X188911653Y-91657971D01*
X188911653Y-91657971D02*
X188840224Y-91586542D01*
D12*
X19000000Y-45460000D03*
D13*
X19000000Y-48000000D03*
X19000000Y-50540000D03*
X19000000Y-53080000D03*
X19000000Y-55620000D03*
X19000000Y-58160000D03*
X19000000Y-60700000D03*
X19000000Y-63240000D03*
X26620000Y-63240000D03*
X26620000Y-60700000D03*
X26620000Y-58160000D03*
X26620000Y-55620000D03*
X26620000Y-53080000D03*
X26620000Y-50540000D03*
X26620000Y-48000000D03*
X26620000Y-45460000D03*
D12*
X96535000Y-43000000D03*
D13*
X96535000Y-45540000D03*
X96535000Y-48080000D03*
X96535000Y-50620000D03*
X96535000Y-53160000D03*
X96535000Y-55700000D03*
X96535000Y-58240000D03*
X104155000Y-58240000D03*
X104155000Y-55700000D03*
X104155000Y-53160000D03*
X104155000Y-50620000D03*
X104155000Y-48080000D03*
X104155000Y-45540000D03*
X104155000Y-43000000D03*
D14*
X180460000Y-30000000D03*
D15*
X185540000Y-30000000D03*
D12*
X44310000Y-124000000D03*
D13*
X44310000Y-126540000D03*
X44310000Y-129080000D03*
X44310000Y-131620000D03*
X44310000Y-134160000D03*
X44310000Y-136700000D03*
X44310000Y-139240000D03*
X44310000Y-141780000D03*
X51930000Y-141780000D03*
X51930000Y-139240000D03*
X51930000Y-136700000D03*
X51930000Y-134160000D03*
X51930000Y-131620000D03*
X51930000Y-129080000D03*
X51930000Y-126540000D03*
X51930000Y-124000000D03*
D12*
X70000000Y-95000000D03*
D13*
X70000000Y-97540000D03*
X70000000Y-100080000D03*
X70000000Y-102620000D03*
X70000000Y-105160000D03*
X70000000Y-107700000D03*
X70000000Y-110240000D03*
X77620000Y-110240000D03*
X77620000Y-107700000D03*
X77620000Y-105160000D03*
X77620000Y-102620000D03*
X77620000Y-100080000D03*
X77620000Y-97540000D03*
X77620000Y-95000000D03*
D16*
X148960000Y-112160000D03*
D17*
X148960000Y-114700000D03*
X148960000Y-117240000D03*
D18*
X51930000Y-114240000D03*
D19*
X51930000Y-99000000D03*
X44310000Y-99000000D03*
X44310000Y-114240000D03*
D14*
X146420000Y-89200000D03*
D15*
X151500000Y-89200000D03*
D12*
X19000000Y-71420000D03*
D13*
X19000000Y-73960000D03*
X19000000Y-76500000D03*
X19000000Y-79040000D03*
X19000000Y-81580000D03*
X19000000Y-84120000D03*
X19000000Y-86660000D03*
X19000000Y-89200000D03*
X26620000Y-89200000D03*
X26620000Y-86660000D03*
X26620000Y-84120000D03*
X26620000Y-81580000D03*
X26620000Y-79040000D03*
X26620000Y-76500000D03*
X26620000Y-73960000D03*
X26620000Y-71420000D03*
D12*
X70000000Y-69000000D03*
D13*
X70000000Y-71540000D03*
X70000000Y-74080000D03*
X70000000Y-76620000D03*
X70000000Y-79160000D03*
X70000000Y-81700000D03*
X70000000Y-84240000D03*
X70000000Y-86780000D03*
X77620000Y-86780000D03*
X77620000Y-84240000D03*
X77620000Y-81700000D03*
X77620000Y-79160000D03*
X77620000Y-76620000D03*
X77620000Y-74080000D03*
X77620000Y-71540000D03*
X77620000Y-69000000D03*
D12*
X69880000Y-42960000D03*
D13*
X69880000Y-45500000D03*
X69880000Y-48040000D03*
X69880000Y-50580000D03*
X69880000Y-53120000D03*
X69880000Y-55660000D03*
X69880000Y-58200000D03*
X69880000Y-60740000D03*
X77500000Y-60740000D03*
X77500000Y-58200000D03*
X77500000Y-55660000D03*
X77500000Y-53120000D03*
X77500000Y-50580000D03*
X77500000Y-48040000D03*
X77500000Y-45500000D03*
X77500000Y-42960000D03*
D12*
X126415000Y-57500000D03*
D13*
X126415000Y-60040000D03*
X126415000Y-62580000D03*
X126415000Y-65120000D03*
X126415000Y-67660000D03*
X126415000Y-70200000D03*
X126415000Y-72740000D03*
X126415000Y-75280000D03*
X134035000Y-75280000D03*
X134035000Y-72740000D03*
X134035000Y-70200000D03*
X134035000Y-67660000D03*
X134035000Y-65120000D03*
X134035000Y-62580000D03*
X134035000Y-60040000D03*
X134035000Y-57500000D03*
D12*
X126035000Y-83460000D03*
D13*
X126035000Y-86000000D03*
X126035000Y-88540000D03*
X126035000Y-91080000D03*
X126035000Y-93620000D03*
X126035000Y-96160000D03*
X126035000Y-98700000D03*
X126035000Y-101240000D03*
X133655000Y-101240000D03*
X133655000Y-98700000D03*
X133655000Y-96160000D03*
X133655000Y-93620000D03*
X133655000Y-91080000D03*
X133655000Y-88540000D03*
X133655000Y-86000000D03*
X133655000Y-83460000D03*
D12*
X44500000Y-45610000D03*
D13*
X44500000Y-48150000D03*
X44500000Y-50690000D03*
X44500000Y-53230000D03*
X44500000Y-55770000D03*
X44500000Y-58310000D03*
X44500000Y-60850000D03*
X44500000Y-63390000D03*
X52120000Y-63390000D03*
X52120000Y-60850000D03*
X52120000Y-58310000D03*
X52120000Y-55770000D03*
X52120000Y-53230000D03*
X52120000Y-50690000D03*
X52120000Y-48150000D03*
X52120000Y-45610000D03*
D14*
X146420000Y-92350000D03*
D15*
X151500000Y-92350000D03*
D12*
X18880000Y-147040000D03*
D13*
X18880000Y-149580000D03*
X18880000Y-152120000D03*
X18880000Y-154660000D03*
X18880000Y-157200000D03*
X18880000Y-159740000D03*
X18880000Y-162280000D03*
X18880000Y-164820000D03*
X26500000Y-164820000D03*
X26500000Y-162280000D03*
X26500000Y-159740000D03*
X26500000Y-157200000D03*
X26500000Y-154660000D03*
X26500000Y-152120000D03*
X26500000Y-149580000D03*
X26500000Y-147040000D03*
D12*
X19000000Y-121000000D03*
D13*
X19000000Y-123540000D03*
X19000000Y-126080000D03*
X19000000Y-128620000D03*
X19000000Y-131160000D03*
X19000000Y-133700000D03*
X19000000Y-136240000D03*
X19000000Y-138780000D03*
X26620000Y-138780000D03*
X26620000Y-136240000D03*
X26620000Y-133700000D03*
X26620000Y-131160000D03*
X26620000Y-128620000D03*
X26620000Y-126080000D03*
X26620000Y-123540000D03*
X26620000Y-121000000D03*
D14*
X180460000Y-58000000D03*
D15*
X185540000Y-58000000D03*
D12*
X96415000Y-116500000D03*
D13*
X96415000Y-119040000D03*
X96415000Y-121580000D03*
X96415000Y-124120000D03*
X96415000Y-126660000D03*
X96415000Y-129200000D03*
X96415000Y-131740000D03*
X96415000Y-134280000D03*
X104035000Y-134280000D03*
X104035000Y-131740000D03*
X104035000Y-129200000D03*
X104035000Y-126660000D03*
X104035000Y-124120000D03*
X104035000Y-121580000D03*
X104035000Y-119040000D03*
X104035000Y-116500000D03*
D12*
X44310000Y-71420000D03*
D13*
X44310000Y-73960000D03*
X44310000Y-76500000D03*
X44310000Y-79040000D03*
X44310000Y-81580000D03*
X44310000Y-84120000D03*
X44310000Y-86660000D03*
X44310000Y-89200000D03*
X51930000Y-89200000D03*
X51930000Y-86660000D03*
X51930000Y-84120000D03*
X51930000Y-81580000D03*
X51930000Y-79040000D03*
X51930000Y-76500000D03*
X51930000Y-73960000D03*
X51930000Y-71420000D03*
D12*
X70000000Y-19500000D03*
D13*
X70000000Y-22040000D03*
X70000000Y-24580000D03*
X70000000Y-27120000D03*
X70000000Y-29660000D03*
X70000000Y-32200000D03*
X70000000Y-34740000D03*
X77620000Y-34740000D03*
X77620000Y-32200000D03*
X77620000Y-29660000D03*
X77620000Y-27120000D03*
X77620000Y-24580000D03*
X77620000Y-22040000D03*
X77620000Y-19500000D03*
D12*
X96535000Y-19500000D03*
D13*
X96535000Y-22040000D03*
X96535000Y-24580000D03*
X96535000Y-27120000D03*
X96535000Y-29660000D03*
X96535000Y-32200000D03*
X96535000Y-34740000D03*
X104155000Y-34740000D03*
X104155000Y-32200000D03*
X104155000Y-29660000D03*
X104155000Y-27120000D03*
X104155000Y-24580000D03*
X104155000Y-22040000D03*
X104155000Y-19500000D03*
D14*
X146420000Y-98650000D03*
D15*
X151500000Y-98650000D03*
D14*
X146420000Y-95500000D03*
D15*
X151500000Y-95500000D03*
D20*
X121535000Y-19000000D03*
D21*
X121535000Y-21794000D03*
X121535000Y-24588000D03*
X121535000Y-27382000D03*
X121535000Y-30176000D03*
X121535000Y-32970000D03*
X121535000Y-35764000D03*
X121535000Y-38558000D03*
X121535000Y-41352000D03*
X121535000Y-44146000D03*
X121535000Y-46940000D03*
X121535000Y-49734000D03*
X139035600Y-49734000D03*
X139035600Y-46940000D03*
X139035600Y-44146000D03*
X139035600Y-41352000D03*
X139035600Y-38558000D03*
X139035600Y-35764000D03*
X139035600Y-32970000D03*
X139035600Y-30176000D03*
X139035600Y-27382000D03*
X139035600Y-24588000D03*
X139035600Y-21794000D03*
X139035600Y-19000000D03*
D12*
X96535000Y-142500000D03*
D13*
X96535000Y-145040000D03*
X96535000Y-147580000D03*
X96535000Y-150120000D03*
X96535000Y-152660000D03*
X96535000Y-155200000D03*
X96535000Y-157740000D03*
X104155000Y-157740000D03*
X104155000Y-155200000D03*
X104155000Y-152660000D03*
X104155000Y-150120000D03*
X104155000Y-147580000D03*
X104155000Y-145040000D03*
X104155000Y-142500000D03*
D12*
X44190000Y-150000000D03*
D13*
X44190000Y-152540000D03*
X44190000Y-155080000D03*
X44190000Y-157620000D03*
X44190000Y-160160000D03*
X44190000Y-162700000D03*
X44190000Y-165240000D03*
X44190000Y-167780000D03*
X51810000Y-167780000D03*
X51810000Y-165240000D03*
X51810000Y-162700000D03*
X51810000Y-160160000D03*
X51810000Y-157620000D03*
X51810000Y-155080000D03*
X51810000Y-152540000D03*
X51810000Y-150000000D03*
D12*
X96535000Y-90000000D03*
D13*
X96535000Y-92540000D03*
X96535000Y-95080000D03*
X96535000Y-97620000D03*
X96535000Y-100160000D03*
X96535000Y-102700000D03*
X96535000Y-105240000D03*
X96535000Y-107780000D03*
X104155000Y-107780000D03*
X104155000Y-105240000D03*
X104155000Y-102700000D03*
X104155000Y-100160000D03*
X104155000Y-97620000D03*
X104155000Y-95080000D03*
X104155000Y-92540000D03*
X104155000Y-90000000D03*
D12*
X18880000Y-19500000D03*
D13*
X18880000Y-22040000D03*
X18880000Y-24580000D03*
X18880000Y-27120000D03*
X18880000Y-29660000D03*
X18880000Y-32200000D03*
X18880000Y-34740000D03*
X18880000Y-37280000D03*
X26500000Y-37280000D03*
X26500000Y-34740000D03*
X26500000Y-32200000D03*
X26500000Y-29660000D03*
X26500000Y-27120000D03*
X26500000Y-24580000D03*
X26500000Y-22040000D03*
X26500000Y-19500000D03*
D16*
X174500000Y-93080000D03*
D17*
X174500000Y-95620000D03*
X174500000Y-98160000D03*
X174500000Y-100700000D03*
X174500000Y-103240000D03*
X174500000Y-105780000D03*
X174500000Y-108320000D03*
X174500000Y-110860000D03*
X174500000Y-113400000D03*
X174500000Y-115940000D03*
X174500000Y-118480000D03*
X174500000Y-121020000D03*
X174500000Y-123560000D03*
X174500000Y-126100000D03*
X174500000Y-128640000D03*
X174500000Y-131180000D03*
X174500000Y-133720000D03*
X174500000Y-136260000D03*
X174500000Y-138800000D03*
X174500000Y-141340000D03*
X174500000Y-143880000D03*
X174500000Y-146420000D03*
X174500000Y-148960000D03*
X174500000Y-151500000D03*
X174500000Y-154040000D03*
X174500000Y-156580000D03*
X174500000Y-159120000D03*
X174500000Y-161660000D03*
X174500000Y-164200000D03*
D14*
X146420000Y-101800000D03*
D15*
X151500000Y-101800000D03*
D12*
X159000000Y-20100000D03*
D13*
X159000000Y-22640000D03*
X159000000Y-25180000D03*
X159000000Y-27720000D03*
X159000000Y-30260000D03*
X159000000Y-32800000D03*
X159000000Y-35340000D03*
X159000000Y-37880000D03*
X159000000Y-40420000D03*
X159000000Y-42960000D03*
X159000000Y-45500000D03*
X159000000Y-48040000D03*
X159000000Y-50580000D03*
X159000000Y-53120000D03*
X159000000Y-55660000D03*
X159000000Y-58200000D03*
X159000000Y-60740000D03*
X159000000Y-63280000D03*
X159000000Y-65820000D03*
X159000000Y-68360000D03*
X159000000Y-70900000D03*
X159000000Y-73440000D03*
X159000000Y-75980000D03*
X159000000Y-78520000D03*
X174240000Y-78520000D03*
X174240000Y-75980000D03*
X174240000Y-73440000D03*
X174240000Y-70900000D03*
X174240000Y-68360000D03*
X174240000Y-65820000D03*
X174240000Y-63280000D03*
X174240000Y-60740000D03*
X174240000Y-58200000D03*
X174240000Y-55660000D03*
X174240000Y-53120000D03*
X174240000Y-50580000D03*
X174240000Y-48040000D03*
X174240000Y-45500000D03*
X174240000Y-42960000D03*
X174240000Y-40420000D03*
X174240000Y-37880000D03*
X174240000Y-35340000D03*
X174240000Y-32800000D03*
X174240000Y-30260000D03*
X174240000Y-27720000D03*
X174240000Y-25180000D03*
X174240000Y-22640000D03*
X174240000Y-20100000D03*
D12*
X18880000Y-97460000D03*
D13*
X18880000Y-100000000D03*
X18880000Y-102540000D03*
X18880000Y-105080000D03*
X18880000Y-107620000D03*
X18880000Y-110160000D03*
X18880000Y-112700000D03*
X26500000Y-112700000D03*
X26500000Y-110160000D03*
X26500000Y-107620000D03*
X26500000Y-105080000D03*
X26500000Y-102540000D03*
X26500000Y-100000000D03*
X26500000Y-97460000D03*
D12*
X44500000Y-19610000D03*
D13*
X44500000Y-22150000D03*
X44500000Y-24690000D03*
X44500000Y-27230000D03*
X44500000Y-29770000D03*
X44500000Y-32310000D03*
X44500000Y-34850000D03*
X44500000Y-37390000D03*
X52120000Y-37390000D03*
X52120000Y-34850000D03*
X52120000Y-32310000D03*
X52120000Y-29770000D03*
X52120000Y-27230000D03*
X52120000Y-24690000D03*
X52120000Y-22150000D03*
X52120000Y-19610000D03*
D12*
X96535000Y-66500000D03*
D13*
X96535000Y-69040000D03*
X96535000Y-71580000D03*
X96535000Y-74120000D03*
X96535000Y-76660000D03*
X96535000Y-79200000D03*
X96535000Y-81740000D03*
X104155000Y-81740000D03*
X104155000Y-79200000D03*
X104155000Y-76660000D03*
X104155000Y-74120000D03*
X104155000Y-71580000D03*
X104155000Y-69040000D03*
X104155000Y-66500000D03*
D22*
X147579100Y-82469100D03*
X177219000Y-128185200D03*
X170809600Y-55792200D03*
X171138500Y-74284200D03*
X135310600Y-152141200D03*
X154841200Y-95245700D03*
X144195700Y-158130200D03*
X155359600Y-107084900D03*
X175321800Y-91492000D03*
X158969500Y-122189300D03*
X156376700Y-119201700D03*
X126425500Y-149146700D03*
X133954000Y-48936900D03*
X136214100Y-62306200D03*
X131346000Y-71065900D03*
X171227300Y-35071100D03*
X119140000Y-65300700D03*
X131057000Y-52176500D03*
X143860100Y-57148600D03*
X143552400Y-97596900D03*
X171142800Y-30079900D03*
X140778200Y-59311700D03*
X129385600Y-77278700D03*
X142136000Y-62306200D03*
X131213400Y-50198000D03*
X129385600Y-71289700D03*
X141450800Y-56312500D03*
X84961700Y-104045900D03*
X55344700Y-56317200D03*
X87133000Y-98240200D03*
X79669600Y-26624700D03*
X106264700Y-36808800D03*
X106088300Y-41691400D03*
X75998300Y-38348600D03*
X75923200Y-54192700D03*
X73310100Y-53322700D03*
X73248000Y-29868600D03*
X87133000Y-116207200D03*
X54554300Y-29366700D03*
X117985500Y-86184500D03*
X106264700Y-98238600D03*
X82000000Y-95245700D03*
X53622900Y-26342400D03*
X144195700Y-68295200D03*
X93448800Y-102966800D03*
X67191500Y-76865000D03*
X46247900Y-32361200D03*
X87923400Y-77958800D03*
X84961700Y-131179700D03*
X49134400Y-77278700D03*
X93846800Y-74365700D03*
X170851000Y-26372200D03*
X106681700Y-56807200D03*
X60555600Y-72901800D03*
X34612800Y-71191200D03*
X23006900Y-86262200D03*
X105188700Y-39148800D03*
X43497900Y-40341000D03*
X42658500Y-55460700D03*
X16062600Y-98240200D03*
X131905900Y-125190700D03*
X29723500Y-131095900D03*
X37574500Y-109355600D03*
X21426100Y-59311700D03*
X131036100Y-131179700D03*
X29639600Y-134174200D03*
X99770200Y-74284200D03*
D23*
X146850000Y-81740000D02*
X147579100Y-82469100D01*
X104155000Y-81740000D02*
X146850000Y-81740000D01*
X145610500Y-111350500D02*
X148960000Y-114700000D01*
X21572200Y-111350500D02*
X145610500Y-111350500D01*
X20381700Y-110160000D02*
X21572200Y-111350500D01*
X18880000Y-110160000D02*
X20381700Y-110160000D01*
X174954800Y-128185200D02*
X177219000Y-128185200D01*
X174500000Y-128640000D02*
X174954800Y-128185200D01*
X160633900Y-55792200D02*
X160501700Y-55660000D01*
X170809600Y-55792200D02*
X160633900Y-55792200D01*
X159000000Y-55660000D02*
X160501700Y-55660000D01*
X159000000Y-73440000D02*
X160501700Y-73440000D01*
X161345900Y-74284200D02*
X171138500Y-74284200D01*
X160501700Y-73440000D02*
X161345900Y-74284200D01*
X137209400Y-154040000D02*
X135310600Y-152141200D01*
X174500000Y-154040000D02*
X137209400Y-154040000D01*
X174125700Y-95245700D02*
X174500000Y-95620000D01*
X154841200Y-95245700D02*
X174125700Y-95245700D01*
X145185500Y-159120000D02*
X144195700Y-158130200D01*
X174500000Y-159120000D02*
X145185500Y-159120000D01*
X156594700Y-108320000D02*
X174500000Y-108320000D01*
X155359600Y-107084900D02*
X156594700Y-108320000D01*
X171980700Y-88150900D02*
X175321800Y-91492000D01*
X135545800Y-88150900D02*
X171980700Y-88150900D01*
X135156700Y-88540000D02*
X135545800Y-88150900D01*
X133655000Y-88540000D02*
X135156700Y-88540000D01*
X173129300Y-122189300D02*
X174500000Y-123560000D01*
X158969500Y-122189300D02*
X173129300Y-122189300D01*
X172681700Y-119201700D02*
X174500000Y-121020000D01*
X156376700Y-119201700D02*
X172681700Y-119201700D01*
X128778800Y-151500000D02*
X126425500Y-149146700D01*
X174500000Y-151500000D02*
X128778800Y-151500000D01*
X135950900Y-46940000D02*
X133954000Y-48936900D01*
X139035600Y-46940000D02*
X135950900Y-46940000D01*
X135810500Y-62306200D02*
X136214100Y-62306200D01*
X135536700Y-62580000D02*
X135810500Y-62306200D01*
X134035000Y-62580000D02*
X135536700Y-62580000D01*
X130205900Y-57500000D02*
X137971900Y-49734000D01*
X126415000Y-57500000D02*
X130205900Y-57500000D01*
X139035600Y-49734000D02*
X137971900Y-49734000D01*
X171627100Y-69788800D02*
X172738300Y-70900000D01*
X154289400Y-69788800D02*
X171627100Y-69788800D01*
X152759700Y-71318500D02*
X154289400Y-69788800D01*
X131598600Y-71318500D02*
X152759700Y-71318500D01*
X131346000Y-71065900D02*
X131598600Y-71318500D01*
X174240000Y-70900000D02*
X172738300Y-70900000D01*
X141199300Y-34070000D02*
X140099300Y-32970000D01*
X170226200Y-34070000D02*
X141199300Y-34070000D01*
X171227300Y-35071100D02*
X170226200Y-34070000D01*
X139035600Y-32970000D02*
X140099300Y-32970000D01*
X171383300Y-67005000D02*
X172738300Y-68360000D01*
X135620000Y-67005000D02*
X171383300Y-67005000D01*
X134863400Y-66248400D02*
X135620000Y-67005000D01*
X120087700Y-66248400D02*
X134863400Y-66248400D01*
X119140000Y-65300700D02*
X120087700Y-66248400D01*
X174240000Y-68360000D02*
X172738300Y-68360000D01*
X174240000Y-50580000D02*
X172738300Y-50580000D01*
X171614600Y-49456300D02*
X172738300Y-50580000D01*
X140699200Y-49456300D02*
X171614600Y-49456300D01*
X140343600Y-49100700D02*
X140699200Y-49456300D01*
X135209300Y-49100700D02*
X140343600Y-49100700D01*
X132133500Y-52176500D02*
X135209300Y-49100700D01*
X131057000Y-52176500D02*
X132133500Y-52176500D01*
X144144200Y-56864500D02*
X143860100Y-57148600D01*
X171533800Y-56864500D02*
X144144200Y-56864500D01*
X172738300Y-55660000D02*
X171533800Y-56864500D01*
X133655000Y-98700000D02*
X135156700Y-98700000D01*
X174240000Y-55660000D02*
X172738300Y-55660000D01*
X142449300Y-98700000D02*
X135156700Y-98700000D01*
X143552400Y-97596900D02*
X142449300Y-98700000D01*
X124206700Y-28990000D02*
X122598700Y-27382000D01*
X170052900Y-28990000D02*
X124206700Y-28990000D01*
X171142800Y-30079900D02*
X170052900Y-28990000D01*
X121535000Y-27382000D02*
X122598700Y-27382000D01*
X168770000Y-59311700D02*
X172738300Y-63280000D01*
X140778200Y-59311700D02*
X168770000Y-59311700D01*
X174240000Y-63280000D02*
X172738300Y-63280000D01*
X171497000Y-77278700D02*
X129385600Y-77278700D01*
X172738300Y-78520000D02*
X171497000Y-77278700D01*
X174240000Y-78520000D02*
X172738300Y-78520000D01*
X171412200Y-64493900D02*
X172738300Y-65820000D01*
X144323700Y-64493900D02*
X171412200Y-64493900D01*
X142136000Y-62306200D02*
X144323700Y-64493900D01*
X174240000Y-65820000D02*
X172738300Y-65820000D01*
X171627100Y-46928800D02*
X172738300Y-48040000D01*
X145487600Y-46928800D02*
X171627100Y-46928800D01*
X143717500Y-48698900D02*
X145487600Y-46928800D01*
X134972300Y-48698900D02*
X143717500Y-48698900D01*
X134760300Y-48910900D02*
X134972300Y-48698900D01*
X134760300Y-48981700D02*
X134760300Y-48910900D01*
X133896200Y-49845800D02*
X134760300Y-48981700D01*
X131565600Y-49845800D02*
X133896200Y-49845800D01*
X131213400Y-50198000D02*
X131565600Y-49845800D01*
X174240000Y-48040000D02*
X172738300Y-48040000D01*
X174240000Y-73440000D02*
X172738300Y-73440000D01*
X131948200Y-73852300D02*
X129385600Y-71289700D01*
X138744500Y-73852300D02*
X131948200Y-73852300D01*
X140269400Y-72327400D02*
X138744500Y-73852300D01*
X171625700Y-72327400D02*
X140269400Y-72327400D01*
X172738300Y-73440000D02*
X171625700Y-72327400D01*
X174240000Y-53120000D02*
X172738300Y-53120000D01*
X171468300Y-54390000D02*
X172738300Y-53120000D01*
X143373300Y-54390000D02*
X171468300Y-54390000D01*
X141450800Y-56312500D02*
X143373300Y-54390000D01*
X123533300Y-74120000D02*
X124913300Y-72740000D01*
X104155000Y-74120000D02*
X123533300Y-74120000D01*
X126415000Y-72740000D02*
X124913300Y-72740000D01*
X104155000Y-27120000D02*
X96535000Y-27120000D01*
X84961700Y-104046000D02*
X84961700Y-104045900D01*
X101459300Y-104046000D02*
X84961700Y-104046000D01*
X102653300Y-105240000D02*
X101459300Y-104046000D01*
X104155000Y-105240000D02*
X102653300Y-105240000D01*
X74728300Y-56930000D02*
X75998300Y-58200000D01*
X55957500Y-56930000D02*
X74728300Y-56930000D01*
X55344700Y-56317200D02*
X55957500Y-56930000D01*
X77500000Y-58200000D02*
X75998300Y-58200000D01*
X87782800Y-98890000D02*
X87133000Y-98240200D01*
X101383300Y-98890000D02*
X87782800Y-98890000D01*
X102653300Y-100160000D02*
X101383300Y-98890000D01*
X104155000Y-100160000D02*
X102653300Y-100160000D01*
X54904900Y-25946800D02*
X53621700Y-27230000D01*
X78991700Y-25946800D02*
X54904900Y-25946800D01*
X79669600Y-26624700D02*
X78991700Y-25946800D01*
X52120000Y-27230000D02*
X53621700Y-27230000D01*
X121535000Y-35764000D02*
X120471300Y-35764000D01*
X119426500Y-36808800D02*
X106264700Y-36808800D01*
X120471300Y-35764000D02*
X119426500Y-36808800D01*
X77500000Y-45500000D02*
X79001700Y-45500000D01*
X58120500Y-36808800D02*
X106264700Y-36808800D01*
X53621700Y-32310000D02*
X58120500Y-36808800D01*
X52120000Y-32310000D02*
X53621700Y-32310000D01*
X100921400Y-41691400D02*
X106088300Y-41691400D01*
X98459800Y-44153000D02*
X100921400Y-41691400D01*
X80348700Y-44153000D02*
X98459800Y-44153000D01*
X79001700Y-45500000D02*
X80348700Y-44153000D01*
X50618300Y-26715300D02*
X50618300Y-29770000D01*
X51373600Y-25960000D02*
X50618300Y-26715300D01*
X52903100Y-25960000D02*
X51373600Y-25960000D01*
X59363100Y-19500000D02*
X52903100Y-25960000D01*
X70000000Y-19500000D02*
X59363100Y-19500000D01*
X52120000Y-29770000D02*
X50618300Y-29770000D01*
X121535000Y-38558000D02*
X120471300Y-38558000D01*
X120261900Y-38348600D02*
X75998300Y-38348600D01*
X120471300Y-38558000D02*
X120261900Y-38348600D01*
X52120000Y-50690000D02*
X53621700Y-50690000D01*
X54781700Y-51850000D02*
X53621700Y-50690000D01*
X71837400Y-51850000D02*
X54781700Y-51850000D01*
X73310100Y-53322700D02*
X71837400Y-51850000D01*
X74180100Y-54192700D02*
X73310100Y-53322700D01*
X75923200Y-54192700D02*
X74180100Y-54192700D01*
X121535000Y-32970000D02*
X120471300Y-32970000D01*
X101327300Y-117834000D02*
X102533300Y-119040000D01*
X88759800Y-117834000D02*
X101327300Y-117834000D01*
X87133000Y-116207200D02*
X88759800Y-117834000D01*
X104035000Y-119040000D02*
X102533300Y-119040000D01*
X76736500Y-33357100D02*
X73248000Y-29868600D01*
X120084200Y-33357100D02*
X76736500Y-33357100D01*
X120471300Y-32970000D02*
X120084200Y-33357100D01*
X77620000Y-79160000D02*
X79121700Y-79160000D01*
X56801000Y-27120000D02*
X70000000Y-27120000D01*
X54554300Y-29366700D02*
X56801000Y-27120000D01*
X85961700Y-86000000D02*
X117985500Y-86000000D01*
X79121700Y-79160000D02*
X85961700Y-86000000D01*
X117985500Y-86000000D02*
X117985500Y-86184500D01*
X126035000Y-86000000D02*
X117985500Y-86000000D01*
X106286400Y-96160000D02*
X106264700Y-96181700D01*
X126035000Y-96160000D02*
X106286400Y-96160000D01*
X82936000Y-96181700D02*
X82000000Y-95245700D01*
X106264700Y-96181700D02*
X82936000Y-96181700D01*
X106264700Y-96181700D02*
X106264700Y-98238600D01*
X70000000Y-24580000D02*
X68498300Y-24580000D01*
X55385300Y-24580000D02*
X68498300Y-24580000D01*
X53622900Y-26342400D02*
X55385300Y-24580000D01*
X175941700Y-58000000D02*
X175741700Y-58200000D01*
X180460000Y-58000000D02*
X175941700Y-58000000D01*
X174240000Y-58200000D02*
X175741700Y-58200000D01*
X180200000Y-30260000D02*
X180460000Y-30000000D01*
X174240000Y-30260000D02*
X180200000Y-30260000D01*
X149570000Y-98650000D02*
X151500000Y-98650000D01*
X146420000Y-101800000D02*
X149570000Y-98650000D01*
X149570000Y-95500000D02*
X151500000Y-95500000D01*
X146420000Y-98650000D02*
X149570000Y-95500000D01*
X149570000Y-92350000D02*
X151500000Y-92350000D01*
X146420000Y-95500000D02*
X149570000Y-92350000D01*
X143719600Y-68771300D02*
X144195700Y-68295200D01*
X129028000Y-68771300D02*
X143719600Y-68771300D01*
X127916700Y-67660000D02*
X129028000Y-68771300D01*
X126415000Y-67660000D02*
X127916700Y-67660000D01*
X149570000Y-89200000D02*
X151500000Y-89200000D01*
X146420000Y-92350000D02*
X149570000Y-89200000D01*
X79468500Y-102966800D02*
X79121700Y-102620000D01*
X93448800Y-102966800D02*
X79468500Y-102966800D01*
X77620000Y-102620000D02*
X79121700Y-102620000D01*
X80320900Y-101279200D02*
X79121700Y-100080000D01*
X107772600Y-101279200D02*
X80320900Y-101279200D01*
X111621800Y-97430000D02*
X107772600Y-101279200D01*
X130883300Y-97430000D02*
X111621800Y-97430000D01*
X132153300Y-96160000D02*
X130883300Y-97430000D01*
X133655000Y-96160000D02*
X132153300Y-96160000D01*
X77620000Y-100080000D02*
X79121700Y-100080000D01*
X53796700Y-76865000D02*
X53431700Y-76500000D01*
X67191500Y-76865000D02*
X53796700Y-76865000D01*
X51930000Y-76500000D02*
X53431700Y-76500000D01*
X47452900Y-31156200D02*
X46247900Y-32361200D01*
X65116500Y-31156200D02*
X47452900Y-31156200D01*
X67430300Y-33470000D02*
X65116500Y-31156200D01*
X71212900Y-33470000D02*
X67430300Y-33470000D01*
X72482900Y-34740000D02*
X71212900Y-33470000D01*
X77620000Y-34740000D02*
X72482900Y-34740000D01*
X96535000Y-22040000D02*
X95033300Y-22040000D01*
X70000000Y-29660000D02*
X71501700Y-29660000D01*
X51930000Y-79040000D02*
X53431700Y-79040000D01*
X54512900Y-77958800D02*
X87923400Y-77958800D01*
X53431700Y-79040000D02*
X54512900Y-77958800D01*
X88569700Y-28503600D02*
X95033300Y-22040000D01*
X72658100Y-28503600D02*
X88569700Y-28503600D01*
X71501700Y-29660000D02*
X72658100Y-28503600D01*
X85505100Y-130636300D02*
X84961700Y-131179700D01*
X101429600Y-130636300D02*
X85505100Y-130636300D01*
X102533300Y-131740000D02*
X101429600Y-130636300D01*
X104035000Y-131740000D02*
X102533300Y-131740000D01*
X26620000Y-79040000D02*
X28121700Y-79040000D01*
X82017900Y-87136200D02*
X79121700Y-84240000D01*
X131017100Y-87136200D02*
X82017900Y-87136200D01*
X132153300Y-86000000D02*
X131017100Y-87136200D01*
X133655000Y-86000000D02*
X132153300Y-86000000D01*
X77620000Y-84240000D02*
X79121700Y-84240000D01*
X77620000Y-84240000D02*
X76118300Y-84240000D01*
X29326200Y-77835500D02*
X28121700Y-79040000D01*
X48673600Y-77835500D02*
X29326200Y-77835500D01*
X48673600Y-77739500D02*
X48673600Y-77835500D01*
X49134400Y-77278700D02*
X48673600Y-77739500D01*
X72308300Y-80430000D02*
X76118300Y-84240000D01*
X51268100Y-80430000D02*
X72308300Y-80430000D01*
X48673600Y-77835500D02*
X51268100Y-80430000D01*
X29391700Y-75230000D02*
X28121700Y-76500000D01*
X92982500Y-75230000D02*
X29391700Y-75230000D01*
X93846800Y-74365700D02*
X92982500Y-75230000D01*
X26620000Y-76500000D02*
X28121700Y-76500000D01*
X109988900Y-26372200D02*
X105656700Y-22040000D01*
X170851000Y-26372200D02*
X109988900Y-26372200D01*
X104155000Y-22040000D02*
X105656700Y-22040000D01*
X32069900Y-153648200D02*
X28001700Y-149580000D01*
X49200100Y-153648200D02*
X32069900Y-153648200D01*
X50308300Y-152540000D02*
X49200100Y-153648200D01*
X51810000Y-152540000D02*
X50308300Y-152540000D01*
X26500000Y-149580000D02*
X28001700Y-149580000D01*
X29402000Y-59440300D02*
X28121700Y-58160000D01*
X84015900Y-59440300D02*
X29402000Y-59440300D01*
X86649000Y-56807200D02*
X84015900Y-59440300D01*
X106681700Y-56807200D02*
X86649000Y-56807200D01*
X26620000Y-58160000D02*
X28121700Y-58160000D01*
X29851700Y-137970000D02*
X28121700Y-136240000D01*
X49158300Y-137970000D02*
X29851700Y-137970000D01*
X50428300Y-139240000D02*
X49158300Y-137970000D01*
X51930000Y-139240000D02*
X50428300Y-139240000D01*
X26620000Y-136240000D02*
X28121700Y-136240000D01*
X114687600Y-72901800D02*
X60555600Y-72901800D01*
X116119400Y-71470000D02*
X114687600Y-72901800D01*
X127373700Y-71470000D02*
X116119400Y-71470000D01*
X128643700Y-70200000D02*
X127373700Y-71470000D01*
X134035000Y-70200000D02*
X128643700Y-70200000D01*
X41263400Y-71191200D02*
X34612800Y-71191200D01*
X42904200Y-72832000D02*
X41263400Y-71191200D01*
X60485800Y-72832000D02*
X42904200Y-72832000D01*
X60555600Y-72901800D02*
X60485800Y-72832000D01*
X24720500Y-86262200D02*
X23006900Y-86262200D01*
X25118300Y-86660000D02*
X24720500Y-86262200D01*
X26620000Y-86660000D02*
X25118300Y-86660000D01*
X29691700Y-163970000D02*
X28001700Y-162280000D01*
X49038300Y-163970000D02*
X29691700Y-163970000D01*
X50308300Y-165240000D02*
X49038300Y-163970000D01*
X51810000Y-165240000D02*
X50308300Y-165240000D01*
X26500000Y-162280000D02*
X28001700Y-162280000D01*
X171383300Y-39235000D02*
X172738300Y-37880000D01*
X138091400Y-39235000D02*
X171383300Y-39235000D01*
X133799600Y-43526800D02*
X138091400Y-39235000D01*
X113021000Y-43526800D02*
X133799600Y-43526800D01*
X112184500Y-44363300D02*
X113021000Y-43526800D01*
X99213400Y-44363300D02*
X112184500Y-44363300D01*
X98036700Y-45540000D02*
X99213400Y-44363300D01*
X174240000Y-37880000D02*
X172738300Y-37880000D01*
X96535000Y-45540000D02*
X98036700Y-45540000D01*
X26620000Y-50540000D02*
X28121700Y-50540000D01*
X96535000Y-45540000D02*
X95033300Y-45540000D01*
X29100200Y-49561500D02*
X28121700Y-50540000D01*
X53078500Y-49561500D02*
X29100200Y-49561500D01*
X55814100Y-46825900D02*
X53078500Y-49561500D01*
X93747400Y-46825900D02*
X55814100Y-46825900D01*
X95033300Y-45540000D02*
X93747400Y-46825900D01*
X32067800Y-161266100D02*
X28001700Y-157200000D01*
X49202200Y-161266100D02*
X32067800Y-161266100D01*
X50308300Y-160160000D02*
X49202200Y-161266100D01*
X51810000Y-160160000D02*
X50308300Y-160160000D01*
X26500000Y-157200000D02*
X28001700Y-157200000D01*
X29541700Y-54500000D02*
X28121700Y-53080000D01*
X73078300Y-54500000D02*
X29541700Y-54500000D01*
X73383400Y-54805100D02*
X73078300Y-54500000D01*
X76280200Y-54805100D02*
X73383400Y-54805100D01*
X76691200Y-54394100D02*
X76280200Y-54805100D01*
X125561200Y-54394100D02*
X76691200Y-54394100D01*
X137984100Y-41971200D02*
X125561200Y-54394100D01*
X139922600Y-41971200D02*
X137984100Y-41971200D01*
X140203800Y-41690000D02*
X139922600Y-41971200D01*
X171468300Y-41690000D02*
X140203800Y-41690000D01*
X172738300Y-40420000D02*
X171468300Y-41690000D01*
X174240000Y-40420000D02*
X172738300Y-40420000D01*
X26620000Y-53080000D02*
X28121700Y-53080000D01*
X49038300Y-156350000D02*
X50308300Y-157620000D01*
X29691700Y-156350000D02*
X49038300Y-156350000D01*
X28001700Y-154660000D02*
X29691700Y-156350000D01*
X26500000Y-154660000D02*
X28001700Y-154660000D01*
X51810000Y-157620000D02*
X50308300Y-157620000D01*
X112606700Y-31530000D02*
X105656700Y-24580000D01*
X170199800Y-31530000D02*
X112606700Y-31530000D01*
X172739800Y-34070000D02*
X170199800Y-31530000D01*
X174948400Y-34070000D02*
X172739800Y-34070000D01*
X175741700Y-34863300D02*
X174948400Y-34070000D01*
X175741700Y-42960000D02*
X175741700Y-34863300D01*
X174240000Y-42960000D02*
X175741700Y-42960000D01*
X104155000Y-24580000D02*
X105656700Y-24580000D01*
X44690100Y-39148800D02*
X43497900Y-40341000D01*
X105188700Y-39148800D02*
X44690100Y-39148800D01*
X28281000Y-55460700D02*
X28121700Y-55620000D01*
X42658500Y-55460700D02*
X28281000Y-55460700D01*
X26620000Y-55620000D02*
X28121700Y-55620000D01*
X44040000Y-98730000D02*
X44310000Y-99000000D01*
X16552400Y-98730000D02*
X44040000Y-98730000D01*
X16062600Y-98240200D02*
X16552400Y-98730000D01*
X51930000Y-131620000D02*
X50428300Y-131620000D01*
X26620000Y-128620000D02*
X28121700Y-128620000D01*
X57121700Y-127930000D02*
X53431700Y-131620000D01*
X129166600Y-127930000D02*
X57121700Y-127930000D01*
X131905900Y-125190700D02*
X129166600Y-127930000D01*
X51930000Y-131620000D02*
X53431700Y-131620000D01*
X31358800Y-132731200D02*
X29723500Y-131095900D01*
X49317100Y-132731200D02*
X31358800Y-132731200D01*
X50428300Y-131620000D02*
X49317100Y-132731200D01*
X29723500Y-130221800D02*
X28121700Y-128620000D01*
X29723500Y-131095900D02*
X29723500Y-130221800D01*
X36950000Y-108731100D02*
X37574500Y-109355600D01*
X21492800Y-108731100D02*
X36950000Y-108731100D01*
X20381700Y-107620000D02*
X21492800Y-108731100D01*
X18880000Y-107620000D02*
X20381700Y-107620000D01*
X32229900Y-127648200D02*
X28121700Y-123540000D01*
X49320100Y-127648200D02*
X32229900Y-127648200D01*
X50428300Y-126540000D02*
X49320100Y-127648200D01*
X51930000Y-126540000D02*
X50428300Y-126540000D01*
X26620000Y-123540000D02*
X28121700Y-123540000D01*
X174240000Y-35340000D02*
X172738300Y-35340000D01*
X96744900Y-40732800D02*
X96535000Y-40942700D01*
X134929600Y-40732800D02*
X96744900Y-40732800D01*
X139052400Y-36610000D02*
X134929600Y-40732800D01*
X171468300Y-36610000D02*
X139052400Y-36610000D01*
X172738300Y-35340000D02*
X171468300Y-36610000D01*
X26500000Y-32200000D02*
X28001700Y-32200000D01*
X36744400Y-40942700D02*
X96535000Y-40942700D01*
X28001700Y-32200000D02*
X36744400Y-40942700D01*
X96535000Y-40942700D02*
X96535000Y-43000000D01*
X22814400Y-60700000D02*
X21426100Y-59311700D01*
X26620000Y-60700000D02*
X22814400Y-60700000D01*
X51930000Y-134160000D02*
X50428300Y-134160000D01*
X26620000Y-131160000D02*
X28121700Y-131160000D01*
X54460300Y-133131400D02*
X53431700Y-134160000D01*
X129084400Y-133131400D02*
X54460300Y-133131400D01*
X131036100Y-131179700D02*
X129084400Y-133131400D01*
X51930000Y-134160000D02*
X53431700Y-134160000D01*
X31452000Y-135268200D02*
X29998800Y-133815000D01*
X49320100Y-135268200D02*
X31452000Y-135268200D01*
X50428300Y-134160000D02*
X49320100Y-135268200D01*
X29998800Y-133037100D02*
X28121700Y-131160000D01*
X29998800Y-133815000D02*
X29998800Y-133037100D01*
X29998800Y-133815000D02*
X29639600Y-134174200D01*
X41578300Y-46730000D02*
X42998300Y-48150000D01*
X20270000Y-46730000D02*
X41578300Y-46730000D01*
X19000000Y-45460000D02*
X20270000Y-46730000D01*
X44500000Y-48150000D02*
X42998300Y-48150000D01*
X20271400Y-20891400D02*
X18880000Y-19500000D01*
X41739700Y-20891400D02*
X20271400Y-20891400D01*
X42998300Y-22150000D02*
X41739700Y-20891400D01*
X44500000Y-22150000D02*
X42998300Y-22150000D01*
X44310000Y-73960000D02*
X42808300Y-73960000D01*
X41539800Y-72691500D02*
X42808300Y-73960000D01*
X35545100Y-72691500D02*
X41539800Y-72691500D01*
X35543600Y-72690000D02*
X35545100Y-72691500D01*
X20270000Y-72690000D02*
X35543600Y-72690000D01*
X19000000Y-71420000D02*
X20270000Y-72690000D01*
X98538500Y-74981000D02*
X98953300Y-74566200D01*
X99235300Y-74284200D02*
X98953300Y-74566200D01*
X99770200Y-74284200D02*
X99235300Y-74284200D01*
M02*
